PathFileType	4	(X/Y/Z)	/Users/niels/Desktop/University/Third Semester/Perception and Action/Exam/Gymnastics Motion Tracking/Code for Gym Tracking/Analyzed Data/Webcam_Backflip/id1_2_trajectory_Sports2D/id1_2_trajectory_Sports2D_px_person00.trc
DataRate	CameraRate	NumFrames	NumMarkers	Units	OrigDataRate	OrigDataStartFrame	OrigNumFrames
29.87551867219917	29.87551867219917	11	22	m	29.87551867219917	120	241
Frame#	Time	Hip			RHip			RKnee			RAnkle			RBigToe			RSmallToe			RHeel			LHip			LKnee			LAnkle			LBigToe			LSmallToe			LHeel			Neck			Head			Nose			RShoulder			RElbow			RWrist			LShoulder			LElbow			LWrist		
		X1	Y1	Z1	X2	Y2	Z2	X3	Y3	Z3	X4	Y4	Z4	X5	Y5	Z5	X6	Y6	Z6	X7	Y7	Z7	X8	Y8	Z8	X9	Y9	Z9	X10	Y10	Z10	X11	Y11	Z11	X12	Y12	Z12	X13	Y13	Z13	X14	Y14	Z14	X15	Y15	Z15	X16	Y16	Z16	X17	Y17	Z17	X18	Y18	Z18	X19	Y19	Z19	X20	Y20	Z20	X21	Y21	Z21	X22	Y22	Z22
120	4.016666666666667	0.8489002112253736	-0.6128947097807075	0.0	0.871212525112804	-0.6163483306946146	0.0	0.903289858725352	-0.7216876447177675	0.0	0.9214410607669266	-0.834711247990465	0.0	0.9660446621880496	-0.8404557840428554	0.0	0.964159527878771	-0.8473572549630511	0.0	0.913763781009621	-0.850884671328322	0.0	0.829134329229118	-0.6151895400656335	0.0	0.8232494309667978	-0.7171803412616945	0.0	0.8009976762369129	-0.8307183385791127	0.0	0.8326912920583434	-0.8395977353902871	0.0	0.8218963388755629	-0.8379109338327847	0.0	0.7941283712768552	-0.8462301601225128	0.0	0.8813375750084154	-0.4544358683386736	0.0	0.9360077665751891	-0.40251632824032557	0.0	0.927315034036701	-0.4463620752588017	0.0	0.8924611272851056	-0.4817869715997579	0.0	0.8822522752996775	-0.5602041334783435	0.0	0.9267834522862158	-0.6104987396929112	0.0	0.8298796840533593	-0.4645620715812781	0.0	0.7773470964248971	-0.5138281872793174	0.0	0.7836390618618815	-0.5728351104520998	0.0
121	4.050138888888889	0.8494177344887174	-0.6151098633851904	0.0	0.8712381294004102	-0.6193366544432644	0.0	0.9032777577664963	-0.7234947567506145	0.0	0.921194454389606	-0.8361291287974537	0.0	0.96521016329671	-0.8422028045868171	0.0	0.9636564760923108	-0.8491501841820672	0.0	0.9135880776418879	-0.8524669497475276	0.0	0.829729371306462	-0.6182325729082041	0.0	0.8241311297678136	-0.7192612985515732	0.0	0.8009821135588344	-0.8327497095645086	0.0	0.8325418953311309	-0.8416908961521585	0.0	0.8221096545211096	-0.8397248835887855	0.0	0.7940969413727147	-0.8482370265041739	0.0	0.8838353765048556	-0.45688091917482976	0.0	0.9378572747381376	-0.4052662909517298	0.0	0.9299422428793592	-0.4484476039574642	0.0	0.8952730708162266	-0.4842027372623443	0.0	0.8889385678609929	-0.5627287504209698	0.0	0.9331502065276732	-0.6087391515496617	0.0	0.832421385043299	-0.46732125032722627	0.0	0.7804766288645651	-0.5172622013070668	0.0	0.7796124871474391	-0.5831960739955837	0.0
122	4.083611111111111	0.8497174681884735	-0.6150216145755445	0.0	0.8706369314205744	-0.619385575513857	0.0	0.9041670312416367	-0.722228172038472	0.0	0.9210690868640363	-0.8351678316864382	0.0	0.9648182876227535	-0.8414728923305189	0.0	0.9631739217171223	-0.848312949134136	0.0	0.9135664653772669	-0.8514962087175909	0.0	0.8306635158692013	-0.6183050949537405	0.0	0.825133412408671	-0.7192380587073085	0.0	0.800956085794719	-0.8328311989645674	0.0	0.8325227053010567	-0.8414978633640686	0.0	0.8224258020452763	-0.8393478310358253	0.0	0.7940306720097878	-0.8482071119764216	0.0	0.8865754723107573	-0.4569488325756799	0.0	0.9404135681781605	-0.4057909899999743	0.0	0.933044192933203	-0.4484136934962768	0.0	0.8974164753161472	-0.4838944997994993	0.0	0.8944503858210038	-0.5623286502896042	0.0	0.9378786437374339	-0.6041719852235068	0.0	0.8359140363091488	-0.46753726102093013	0.0	0.7840611736385147	-0.517380240675835	0.0	0.7791180045409247	-0.586608231962261	0.0
123	4.117083333333333	0.8497567305429814	-0.6126947911394476	0.0	0.8693835256559072	-0.6165415251071633	0.0	0.9066257637793205	-0.7178740358841453	0.0	0.9210282014784346	-0.8316606822353005	0.0	0.9647541867846225	-0.8384798087877546	0.0	0.9625872000521476	-0.8449783097130851	0.0	0.9135387966191372	-0.8478521239128538	0.0	0.8318735051109901	-0.6154359935658794	0.0	0.8262102793586757	-0.7171542060671711	0.0	0.8008786587002591	-0.8309180743380279	0.0	0.8326987697646727	-0.8391546412875862	0.0	0.8228757557059362	-0.8368929236556097	0.0	0.7938754927474366	-0.8460923872928048	0.0	0.8897435786741033	-0.4547402955243277	0.0	0.9438217111373773	-0.4042336839833199	0.0	0.9367030548271253	-0.4463841947616216	0.0	0.8989948718792531	-0.4810847123205183	0.0	0.8984722126425331	-0.5592853083836294	0.0	0.9410521884492847	-0.5972639475779331	0.0	0.8404069939245508	-0.4653054376272192	0.0	0.7882340975949673	-0.5147229446048616	0.0	0.782359192756331	-0.5846548313895004	0.0
124	4.150555555555556	0.8497418506758783	-0.6084889090930742	0.0	0.8677443557741864	-0.6112947413929428	0.0	0.9111527397034258	-0.7107873764273219	0.0	0.9210298827080902	-0.8257513467656972	0.0	0.964797092362987	-0.8338005664256836	0.0	0.9618036966932242	-0.8397103963810274	0.0	0.9133160793979338	-0.8417814567019333	0.0	0.8333761131701147	-0.6101406698267435	0.0	0.8274515920326104	-0.7131883692695161	0.0	0.8007634028861117	-0.8271328326442865	0.0	0.8331475798776027	-0.8350196698963187	0.0	0.8236046479525843	-0.832663314853932	0.0	0.7936408210781591	-0.8420184768425671	0.0	0.8934571178008063	-0.4505962393869338	0.0	0.9480732551439187	-0.40101738474861975	0.0	0.9408563103209945	-0.4426717372249978	0.0	0.9001564317798311	-0.4762272046326945	0.0	0.9008822335463839	-0.5541830052483252	0.0	0.9429303802583472	-0.5888489612949802	0.0	0.845838147563663	-0.46097071721862354	0.0	0.7931186003630196	-0.5100819535832911	0.0	0.788667704678448	-0.5792955079891822	0.0
125	4.184027777777778	0.8500809105660745	-0.602982286450839	0.0	0.8662673992873993	-0.6044572839480664	0.0	0.9176782105768878	-0.7018201913917016	0.0	0.9210691987782703	-0.818093486403394	0.0	0.9648439521760073	-0.8282575433107194	0.0	0.9609276054849362	-0.8334243221843791	0.0	0.9128076641690942	-0.8340656194201197	0.0	0.8352931888450363	-0.6032503196433986	0.0	0.829085902133448	-0.7077263833805448	0.0	0.8006831545971724	-0.8217864984626659	0.0	0.8339329945911137	-0.8295873019518037	0.0	0.8247132348320634	-0.8270897090294372	0.0	0.7934041931066474	-0.836382601753668	0.0	0.8976892124371695	-0.4450440865749651	0.0	0.9529869277363161	-0.39669589631418134	0.0	0.9453250416621267	-0.4377437086412478	0.0	0.9010696252375189	-0.4699412098470608	0.0	0.9016882244876503	-0.5477756910266472	0.0	0.9438073546570918	-0.5799028324745167	0.0	0.8520460688472246	-0.4551179967534138	0.0	0.7987672001673247	-0.5043720256256427	0.0	0.7967512334672885	-0.5724247888980009	0.0
126	4.2175	0.8512519701198512	-0.5968795946787726	0.0	0.865635851575235	-0.5970186194192043	0.0	0.9252897944664916	-0.6923992433378086	0.0	0.9211663511808682	-0.8099327188029408	0.0	0.96500697258823	-0.8228331788563384	0.0	0.960256429283923	-0.8272706887560214	0.0	0.9120807478930577	-0.8260335413415694	0.0	0.8378423540265921	-0.5957108960495681	0.0	0.8314182808240177	-0.7014110814749793	0.0	0.8007541495196083	-0.8153695164785649	0.0	0.835046007432847	-0.823436825509032	0.0	0.8261065543302284	-0.8207013442608482	0.0	0.7932769283966004	-0.8298392616131727	0.0	0.9022713405462618	-0.4387259923490517	0.0	0.9582267355155877	-0.39177179285631863	0.0	0.9498988427151592	-0.432154310065496	0.0	0.9019164111159791	-0.4629598320036421	0.0	0.9010046530597139	-0.5408516918139314	0.0	0.9439498604211745	-0.5713193294486915	0.0	0.8588038515739164	-0.44849242144965434	0.0	0.8051258602244121	-0.49850758845508025	0.0	0.805107281047987	-0.5655581794262973	0.0
127	4.250972222222222	0.8536405589386213	-0.5909562405607193	0.0	0.8664252547445012	-0.5899953583902621	0.0	0.9324067509634545	-0.684304282496656	0.0	0.921361648820917	-0.8029414930410331	0.0	0.9655284772698219	-0.8185837979093461	0.0	0.9601149198346263	-0.8224747760088859	0.0	0.9113479777074859	-0.8193207072364387	0.0	0.8412635331765386	-0.588458949063429	0.0	0.8346988469376724	-0.6950920984208337	0.0	0.8011005643647382	-0.8085007522762578	0.0	0.8363990364828517	-0.8171620607428581	0.0	0.8275035076863567	-0.8140727515243317	0.0	0.793359900816698	-0.8231439346481051	0.0	0.9069798403818428	-0.4323199046247757	0.0	0.9633874393569324	-0.38662322327519794	0.0	0.9544270616845664	-0.4264531645336794	0.0	0.9028996684755995	-0.4560544774485317	0.0	0.8990851700877456	-0.5341235335011745	0.0	0.9436092431820179	-0.5638275430046115	0.0	0.8658484284288506	-0.4418740216368265	0.0	0.8120288656623215	-0.49324165504548706	0.0	0.8125018623808369	-0.5597101130583497	0.0
128	4.2844444444444445	0.8574139752679893	-0.5859864759848051	0.0	0.8688913161709769	-0.5842952342588699	0.0	0.9374192689535129	-0.6791141661300074	0.0	0.9217063298120555	-0.7987381651003443	0.0	0.966590096025387	-0.8164309956753035	0.0	0.9606676510816468	-0.8200619130712106	0.0	0.9108786772247794	-0.815384619912573	0.0	0.845723670253879	-0.5823491866642145	0.0	0.8389804017470227	-0.6896483011732921	0.0	0.80181114099149	-0.8018481595145822	0.0	0.8379258779678773	-0.8113305905941975	0.0	0.8286737491018347	-0.8077777977461277	0.0	0.7937163946787614	-0.8169869722267147	0.0	0.9116296869910995	-0.42647982449096605	0.0	0.9681452362809176	-0.381580932912109	0.0	0.9588421536610976	-0.4211136335229546	0.0	0.9042251442423245	-0.44994336774907867	0.0	0.8963434331417884	-0.5281620142019674	0.0	0.9430358748542426	-0.5580343045293449	0.0	0.8728976612197623	-0.4359690047146326	0.0	0.8192455478144371	-0.48903526948226134	0.0	0.8183393318923594	-0.5554541787984698	0.0
129	4.317916666666667	0.8624759433536001	-0.5826123378075749	0.0	0.8729116613122282	-0.5805918749309364	0.0	0.9393896672463152	-0.6776155674066351	0.0	0.9221629428657951	-0.7982300675507664	0.0	0.9681008639551193	-0.8168299829460137	0.0	0.9617911014486593	-0.8205091106940835	0.0	0.910810355895973	-0.8149530682819813	0.0	0.8512369662281556	-0.5780751525514098	0.0	0.8440783143622534	-0.6857563165778153	0.0	0.8029180436485459	-0.7960472403472555	0.0	0.8396375635005934	-0.8065273187820196	0.0	0.8296452371081501	-0.8024087784654875	0.0	0.7943672240682794	-0.8118947647341814	0.0	0.9161196338782341	-0.42180980155227465	0.0	0.9723353641393351	-0.37703184493502756	0.0	0.9631174597632203	-0.4165416354703399	0.0	0.9060512058005824	-0.4452427193830864	0.0	0.8932935477059238	-0.5234013083905691	0.0	0.9424533829618561	-0.5544636471915607	0.0	0.879675084141105	-0.4313720264007679	0.0	0.8265502318997919	-0.48612107008648875	0.0	0.8227774035044374	-0.5530586788485637	0.0
130	4.351388888888889	0.8684842580726592	-0.5811957521113005	0.0	0.8780832803839476	-0.5792018829955472	0.0	0.938387345025545	-0.6795763252570222	0.0	0.922548116765197	-0.8012466692046246	0.0	0.96965537274329	-0.8195600054666964	0.0	0.9630864911048038	-0.8235538514334185	0.0	0.9110305706611037	-0.8177637892259019	0.0	0.8575907233347438	-0.5760533797598147	0.0	0.8496841953392096	-0.6837542013482236	0.0	0.8044015729601487	-0.7916354334373323	0.0	0.8414963105991512	-0.803350204679414	0.0	0.8306019824687906	-0.7985649510415489	0.0	0.7953084773991693	-0.8081870241404906	0.0	0.9204313768724649	-0.4188306066073067	0.0	0.9759100758446184	-0.3734439405189514	0.0	0.9672351765136876	-0.41316109268554446	0.0	0.9084440058198925	-0.4424406346565901	0.0	0.8904447246176779	-0.5201995795810005	0.0	0.9420372932017266	-0.5535281568717789	0.0	0.8859594731352118	-0.4285697477259351	0.0	0.8337534879533262	-0.4847418869903611	0.0	0.8265624056216491	-0.552576629709114	0.0
